<svg xmlns="http://www.w3.org/2000/svg" viewBox="0 0 135 31" width="136" height="31">
    <path d="M18.794 25.23a.456.456 0 00-.838 0c-.429.66-1.714 2.38-1.863 2.74s-.018.38.28.38a2.681 2.681 0 001.21-.19c.168-.17 0 .19.745.19a19.051 19.051 0 002.794-.19c.633-.13.838.11 1.4.66a2.693 2.693 0 001.956.76c.335-.13.782-.36.372-.66a7.939 7.939 0 01-1.49-1.42c-.3-.46-.726-1.34-1.3-1.33s-.26.33-.931 0-1.583-.03-1.955-.37a.965.965 0 01-.38-.57zM17.118 9.15a21.952 21.952 0 00-1.863 1.23c-.708.55-1.732 1.04-1.676 1.42a.856.856 0 010 .85.6.6 0 00-.279.66c.093.29-.019.95.465.57a4.084 4.084 0 011.3-.76c.261-.03 1.322-.81 1.211-1.23s-.392-.85 0-1.13 1.531-1.7.842-1.61zm1.4 1.7s.856-1.19.558-1.7.41-.91.652-.94a.76.76 0 00.466-.76c.037-.42.577-.42.745.19a1.161 1.161 0 01-.745 1.23.869.869 0 00-.559.75c-.115.48-1.325 1.86-1.12 1.23zm.558-1.7a.844.844 0 01-.372.85c-.506.44-.452.54-.373.76s.147.43.28.19.559-1.14.559-1.14v-.56zm.932-.19a.512.512 0 00-.093.48.3.3 0 01-.094.47 6.623 6.623 0 01-1.3 1.13 1.978 1.978 0 01.279-.75l.931-1.23zM12 12.65s1.229 1.89.745 2.08-1.49 1.31-1.677 1.14a1.327 1.327 0 00-1.4-.1c-.764.29-1.341 1.02-1.677.95s-.894-.95-.558-1.23.968-.02 1.676-.95 1.583-.26 1.769-.47-.857-.55-.652-.85 1.565-1.19 1.774-.57zm-.466-1.13a21 21 0 01-.466-2.08c-.037-.5-.074-.69-.558-.1s-.689.49-.652.76.5 1.47.279 1.7-1.322-.55-1.769-.66a.847.847 0 00-.931.19 1.216 1.216 0 00-.373 1.13c.242.29 1.192.02 1.583.19s.969.74 1.3.38 1.953-.89 1.583-1.51zm2.049-1.42s-.155.93.186.66 3.2-1.8 3.632-2.27a8.1 8.1 0 011.025-1.51c.62-.51 1.07-.27 1.024-.48s-.667-1.3-1.024-1.13a4.806 4.806 0 00-1.584 1.61c-.31.63-.76 1.38-1.024 1.32s-.233-1.32-.279-1.8.186-1.43-.559-.94a5.972 5.972 0 00-1.49 1.32c-.124.22.217.52-.28.57S12 6.6 11.72 6.69s-1.164.52-.745.66a3.989 3.989 0 011.4.67c.264.3 1.133.25 1.118.75s.117 1.12.086 1.33zm-1.676 13.62s-.038 2.13-.652 2.36-1.043-.49-1.677-.38a16.48 16.48 0 00-1.769.85 4.5 4.5 0 00-1.676 1.89c-.466.69-1.174 1.35-.838 1.71s1.545-.61 2.514-1.42 1.4-.97 2.235-.57a2.271 2.271 0 001.956.19c.689-.21.968-.49 1.117-.28s-.465.7-1.117.94a2.314 2.314 0 00-1.025 1.33c-.223.37-.186.58 0 .66s.857-.87 1.677-1.04a7.7 7.7 0 002.421-1.33 12.335 12.335 0 001.3-1.6c.372-.51.8-1.16.465-1.52s.41-.73.839-1.13a1.311 1.311 0 00.558-1.14 2.256 2.256 0 01-.093-1.04c.019-.34.019-.66-.465-.66s-1.081.83-1.211.76a1.035 1.035 0 00-1.118.38c-.428.49-.987.88-1.3 1.32a26.928 26.928 0 012.328-2.55c.95-.78 2.16-1.55 1.676-1.99a.877.877 0 00-.838-.19c-.075-.07-.373-.79-.652-.57a17.651 17.651 0 00-2.421 1.99 11.151 11.151 0 011.955-2.27 4.893 4.893 0 001.211-1.23c.168-.06.652-.6.373-.85s-.652-.81-.094-1.14a3.214 3.214 0 012.7-.47c1.378.34 1.565 1.53 2.142.85s.857-1.28.093-1.61-2.7-.41-2.887-.56.8-.44.838-.66-.111-.46.187-.57a2.511 2.511 0 00.838-.1c.428-.22 1.788-1.06 1.4-1.42s-.6-.51-.839-.28-.67.61-1.024.28-.559-.9-.931-.66-3.3 2.99-3.818 3.03-.205-.42-1.4.57-3.539 2.3-3.353 2.64.782.87.466 1.23-.354.44-.186.67.3.62.745.28a15.367 15.367 0 001.955-1.61c.41-.49-.559 1.19-1.117 1.61s-1.174.68-1.118.95.559.56.373.75-1.248.95-1.118 1.23.149.8.466.57 1.117-.76 1.117-.76a10.106 10.106 0 00-1.024 1.14 3.769 3.769 0 00-.191 1.42zm-11.9 6.17h3.274s.833-3.05 2.182-3.87 1.956-1.84 2.729-1.66 1.654-.11 1.636-.56-1.142-.96-.545-1.66 1.755-2 0-1.66-2.91.46-3.82 0-2.28-2.42-2.182-3.32 2.145-1.92 1.637-2.77-1.89-2.81-1.637-3.87S5.259 8.99 6.009 8.3s2.325-1.92.546-1.66-.934-1.81.545-2.21 2.032-.41 2.728-1.11.924-1.9 2.183-1.66a6.245 6.245 0 003.274-.55C16.001.84 15.128 0 13.648 0H0v29.89zM18.552 0c-1.349 0-1 1.18 0 1.11s2.016.06 2.182.55.368 1.6 1.091 1.66 3.257.46 2.729 1.66.387 2.1.545 3.32 2.049 2.49 1.092 3.33-1.3 1.85-.546 2.76.211 2.64-.546 2.77-3.49 1.82-3.274 1.11-.069-1.53-1.091-1.11-2.073 1.36-1.091 2.22-.068 2.84 0 3.32.861.64 1.637 1.1.757 1.16 2.182 1.11 1.879 1.52 2.183 2.21 1.637 2.77 1.637 2.77L29 30V0H18.552z" fill-rule="evenodd" fill="#cfcfcf"/>
    <path class="cls-2" fill-rule="evenodd" fill="#9f9f9f" d="M34 0h3v10.01h-3V0z"/>
    <path d="M34 10.01h3v10.01h-3V10.01z" fill="#bbb" fill-rule="evenodd"/>
    <path d="M34 20.02h3V30h-3v-9.98z" fill="#dfdfdf" fill-rule="evenodd"/>
    <path data-name="Kleingarten Deutschland" class="cls-2" fill-rule="evenodd" fill="#9f9f9f" d="M46.8 13.31h1.42l-3.249-6.87L48.114.7h-1.4l-3.3 6.09V.7h-1.385v12.61h1.385V9.07l.728-1.24zm9.8 0v-1.28h-3.551V.7h-1.386v12.61H56.6zm4.818-7.03v-4.3h3.73V.7h-5.115v12.61h5.115v-1.28h-3.73V7.54h3.037V6.28h-3.037zM68.692.7v12.61h1.385V.7h-1.385zm6.269 2.41l3.179 10.2h1.438V.7h-1.225v9.11L75.476.7h-1.758v12.61h1.243V3.11zm11-2.54c-1.9 0-2.788 1.26-2.788 3.17v6.52c0 1.91.888 3.17 2.788 3.17 1.918 0 2.806-1.26 2.806-3.17V6.55h-2.593v1.26h1.279v2.53c0 1.13-.444 1.82-1.456 1.82-1 0-1.456-.69-1.456-1.82V3.67c0-1.14.461-1.82 1.456-1.82 1.012 0 1.456.68 1.456 1.82v1.15h1.314V3.74c.002-1.91-.886-3.17-2.804-3.17zm10.888 10.2l.48 2.54h1.385L96.334.7H94.33l-2.38 12.61h1.279l.479-2.54h3.143zm-1.6-8.49l1.4 7.28h-2.77zM102.163.7v12.61h1.385V7.92h.977a1.581 1.581 0 011.811 1.87v1.99a3.354 3.354 0 00.231 1.53h1.4a3.217 3.217 0 01-.249-1.52V9.83c0-1.35-.426-2.29-1.563-2.63 1.066-.34 1.545-1.21 1.545-2.59V3.58c0-1.87-.816-2.88-2.77-2.88h-2.77zm1.385 5.94V1.98h1.35c1.03 0 1.438.59 1.438 1.73v1.2a1.486 1.486 0 01-1.758 1.73h-1.03zm11.129 6.67V1.98h2.291V.7h-5.966v1.28h2.29v11.33h1.385zm7.067-7.03v-4.3h3.729V.7h-5.114v12.61h5.114v-1.28h-3.729V7.54h3.036V6.28h-3.036zm8.508-3.17l3.179 10.2h1.438V.7h-1.225v9.11L130.767.7h-1.758v12.61h1.243V3.11zm-88.233 14.4v12.61h2.912c1.936 0 2.824-1.18 2.824-3.11v-6.36c0-1.95-.888-3.14-2.824-3.14h-2.912zm1.385 11.34V18.79H44.9c1.012 0 1.491.63 1.491 1.79v6.48c0 1.15-.479 1.79-1.474 1.79h-1.509zm8.878-5.75v-4.31h3.73v-1.28H50.9v12.61h5.115v-1.27h-3.73v-4.49h3.037V23.1h-3.037zm8.181-5.59H59.1v9.57c0 1.91.87 3.19 2.771 3.19 1.918 0 2.788-1.28 2.788-3.19v-9.57h-1.3v9.64c0 1.14-.444 1.82-1.438 1.82-1.012 0-1.456-.68-1.456-1.82v-9.64zM71.25 30.12V18.79h2.291v-1.28h-5.967v1.28h2.291v11.33h1.385zm7.811-12.73c-1.864 0-2.752 1.2-2.752 3.15 0 3.55 4.155 3.82 4.155 6.63 0 1.13-.462 1.8-1.456 1.8s-1.456-.67-1.456-1.8v-.79h-1.3v.72c0 1.91.888 3.15 2.788 3.15s2.806-1.24 2.806-3.15c0-3.55-4.173-3.82-4.173-6.65 0-1.12.426-1.78 1.421-1.78s1.42.66 1.42 1.8v.41h1.315v-.34c.007-1.91-.881-3.15-2.764-3.15zm8.6 0c-1.9 0-2.788 1.26-2.788 3.17v6.52c0 1.91.888 3.17 2.788 3.17 1.918 0 2.806-1.26 2.806-3.17v-1.57h-1.314v1.64c0 1.14-.444 1.82-1.457 1.82-.994 0-1.456-.68-1.456-1.82v-6.66c0-1.14.462-1.82 1.456-1.82 1.013 0 1.457.68 1.457 1.82v1.2h1.314v-1.13c.004-1.91-.884-3.17-2.802-3.17zm10.345 7.06v5.67H99.4V17.51h-1.39v5.68h-3.054v-5.68H93.57v12.61h1.386v-5.67h3.054zm9.558 5.67v-1.27h-3.551V17.51h-1.385v12.61h4.936zm7.726-2.54l.48 2.54h1.385l-2.38-12.61h-2.006l-2.38 12.61h1.279l.479-2.54h3.143zm-1.6-8.48l1.4 7.28h-2.77zm7.712.83l3.179 10.19h1.438V17.51H124.8v9.12l-2.877-9.12h-1.758v12.61h1.243V19.93zm7.854-2.42v12.61h2.912c1.936 0 2.824-1.18 2.824-3.11v-6.36c0-1.95-.888-3.14-2.824-3.14h-2.912zm1.385 11.34V18.79h1.491c1.013 0 1.492.63 1.492 1.79v6.48c0 1.15-.479 1.79-1.474 1.79h-1.509z"/>
</svg>
