<svg xmlns="http://www.w3.org/2000/svg" viewBox="0 0 178 40" width="178" height="40"><path fill="#6cce36" d="M25.086 33.286c.487.44 1.682.073 2.56.488.877.415.462.024 1.218 0s1.316 1.123 1.706 1.708c.39.586 1.414 1.44 1.95 1.83.537.391-.048.684-.487.855-.439.17-1.828-.268-2.56-.976-.73-.708-.999-1.025-1.828-.854-.829.17-2.681.244-3.656.244-.976 0-.756-.464-.976-.244-.219.22-1.194.244-1.584.244-.39 0-.56-.025-.366-.488.195-.464 1.877-2.685 2.438-3.54.56-.853 1.097 0 1.097 0 .098.196 0 .294.488.733zm-3.779-19.403c-.512.366-.146.928 0 1.465s-1.243 1.537-1.584 1.586c-.342.049-1.073.488-1.707.976-.634.488-.487-.366-.61-.732-.121-.366.05-.512.366-.854.317-.342.074-.61 0-1.098-.073-.489 1.268-1.123 2.194-1.83.927-.709 2.438-1.587 2.438-1.587.902-.122-.585 1.708-1.097 2.074zm4.51-3.295c.317-.048.56-.439.61-.976.048-.537.755-.537.974.244.22.781-.438 1.245-.975 1.587-.115.073-.208.132-.284.185-.075.125-.214.401-.081.547.174.192.122.4-.122.61-.238.204-1.55 1.567-1.698 1.474-.104.047-.173-.165-.252-.376-.105-.279-.174-.418.487-.976.662-.558.488-1.098.488-1.098-.39-.66.536-1.172.853-1.22zM15.7 16.324s1.61 2.44.975 2.684c-.633.245-1.95 1.685-2.194 1.465-.243-.22-.828-.488-1.828-.122s-1.755 1.318-2.194 1.22c-.439-.098-1.17-1.22-.731-1.586.439-.366 1.267-.025 2.194-1.22.926-1.196 2.072-.342 2.316-.61.243-.27-1.122-.708-.854-1.099.269-.39 2.048-1.538 2.316-.732zm-2.681.488c-.439.464-1.195-.269-1.707-.488-.512-.22-1.755.122-2.072-.244-.317-.366.268-1.196.488-1.465.22-.268.634-.39 1.219-.244.585.147 2.023 1.147 2.316.855.292-.293-.317-1.855-.366-2.197-.049-.342.22-.22.853-.976.634-.757.683-.513.731.122.05.634.61 2.684.61 2.684.487.806-1.633 1.49-2.072 1.953zm4.632-5.491c.02-.651-1.118-.59-1.463-.977-.346-.386-1.28-.67-1.828-.854-.549-.183.609-.732.975-.854.365-.122 1.3 1.037 1.95.976.65-.06.203-.447.366-.732.162-.285.975-1.078 1.95-1.708.975-.63.67.61.731 1.22.06.61.02 2.237.366 2.318.345.082.934-.894 1.34-1.708.407-.813 1.605-1.85 2.072-2.074.468-.224 1.28 1.2 1.341 1.464.061.264-.528-.04-1.34.61-.813.65-.772 1.342-1.341 1.953-.57.61-4.307 2.582-4.754 2.928-.447.346-.244-.854-.244-.854.041-.264-.142-1.058-.121-1.708zm-1.829 17.45c.317-.488 1.34-1.464 1.34-1.464s-1.047.683-1.462.976c-.414.293-.438-.366-.61-.733-.17-.366 1.22-1.342 1.463-1.586.244-.244-.414-.634-.487-.976-.073-.342.731-.683 1.463-1.22.73-.537 1.999-2.71 1.462-2.075-.536.635-1.974 1.635-2.56 2.075-.584.439-.755-.074-.974-.366-.22-.293-.171-.391.243-.855.415-.463-.365-1.147-.61-1.586-.243-.44 2.829-2.148 4.389-3.417 1.56-1.269 1.146-.683 1.828-.732.683-.049 4.51-3.588 4.997-3.905.488-.317.756.44 1.22.854.463.415 1.023-.073 1.34-.366.317-.293.585-.098 1.097.366.512.464-1.268 1.538-1.828 1.83-.56.294-.707-.024-1.097.123-.39.146-.195.439-.244.732-.049.293-1.34.659-1.097.854.244.195 2.78.317 3.779.732.999.415.633 1.196-.122 2.075-.756.878-1-.66-2.804-1.099-1.804-.439-2.803.196-3.535.61-.73.416-.243 1.148.122 1.465.366.317-.268 1.025-.487 1.098-.22.073-.244.684-1.585 1.587-.959.645-2.017 2.153-2.426 2.753.609-.678 2.703-2.12 3.036-2.387.365-.293.755.634.853.732.097.098.463-.317 1.097.244.634.561-.95 1.562-2.194 2.563-.833.67-2.102 2.172-2.726 2.922.413-.425.95-.844 1.385-1.336.56-.635 1.292-.586 1.463-.488.17.097.95-.976 1.584-.976.634 0 .634.414.61.854-.025.44-.049 1.098.122 1.342.17.244-.17.952-.732 1.464-.56.513-1.535 1.001-1.097 1.465.44.464-.121 1.293-.609 1.952-.488.66-1.292 1.733-1.706 2.075-.415.341-2.097 1.489-3.17 1.708-1.072.22-1.95 1.44-2.193 1.343-.244-.098-.293-.367 0-.855.292-.488.487-1.39 1.34-1.708.853-.317 1.658-.952 1.463-1.22-.195-.269-.56.097-1.463.366-.902.268-1.462.268-2.56-.244-1.096-.513-1.657-.318-2.925.732-1.267 1.05-2.852 2.294-3.29 1.83-.44-.463.487-1.318 1.096-2.196.61-.879 1.22-2.1 2.194-2.44.975-.343 1.487-.953 2.316-1.1.829-.146 1.39.782 2.194.489.805-.293.853-3.05.853-3.05.05-.27-.073-1.343.244-1.831z"/><path fill="#6dce37" d="M0 38.571h4.285s1.09-3.935 2.856-5c1.766-1.064 2.56-2.37 3.571-2.142 1.012.227 2.166-.139 2.143-.715-.024-.576-1.495-1.244-.715-2.143.781-.898 2.298-2.581 0-2.142-2.297.439-3.808.593-4.999 0-1.19-.594-2.985-3.128-2.856-4.286.128-1.158 2.807-2.478 2.142-3.572-.665-1.093-2.473-3.63-2.142-5 .33-1.368 2.589-1.966 3.57-2.857.982-.89 3.044-2.476.715-2.143-2.33.334-1.223-2.338.714-2.857 1.936-.519 2.66-.533 3.57-1.428.912-.896 1.21-2.454 2.857-2.143 1.648.31 3.348-.365 4.285-.714C20.933 1.079 19.79 0 17.854 0H0zM24.28 0c-1.764 0-1.314 1.527 0 1.429 1.316-.1 2.64.086 2.857.714.218.628.482 2.065 1.429 2.143.946.077 4.262.598 3.57 2.143-.692 1.545.507 2.701.715 4.285.207 1.584 2.682 3.21 1.428 4.286-1.254 1.076-1.705 2.399-.714 3.571.99 1.173.275 3.408-.714 3.572-.99.164-4.568 2.348-4.285 1.428.283-.92-.09-1.976-1.429-1.428-1.337.547-2.713 1.752-1.428 2.857 1.285 1.105-.089 3.669 0 4.286.089.617 1.128.834 2.143 1.428 1.014.594.99 1.493 2.856 1.429 1.865-.064 2.459 1.955 2.857 2.857.397.902 2.142 3.571 2.142 3.571h2.857V0H24.28z"/><path fill="#404040" d="M45 0h4.281v12.844H45z"/><path fill="#ff3f30" d="M45 12.844h4.281v12.875H45z"/><path fill="#ffc105" d="M45 25.719h4.281v12.844H45z"/><g><path fill="#404040" d="M59.075 10.104l-.953 1.605v5.463H56.31V.899h1.813v7.857L62.445.9h1.836l-4.113 7.415 4.253 8.858h-1.86zm9.85 7.068V.899h1.814V15.52h4.648v1.65zm16.743-9.067v1.628h-3.975v5.788h4.881v1.65H79.88V.9h6.694v1.65h-4.88v5.556zM93.026.9v16.273h-1.813V.899zm6.392 16.273h-1.627V.899h2.301l3.765 11.763V.899h1.604v16.273h-1.882l-4.16-13.158zm18.074-12.345v1.395h-1.72V4.734c0-1.464-.581-2.348-1.906-2.348-1.301 0-1.906.884-1.906 2.348v8.602c0 1.464.605 2.348 1.906 2.348 1.325 0 1.906-.884 1.906-2.348V10.08H114.1V8.454h3.393v4.789c0 2.464-1.162 4.091-3.672 4.091-2.487 0-3.65-1.627-3.65-4.091V4.827c0-2.464 1.163-4.091 3.65-4.091 2.51 0 3.672 1.627 3.672 4.091zm6.464 9.067l-.627 3.278h-1.674L124.77.899h2.626l3.115 16.273h-1.813l-.628-3.278zm.233-1.558h3.625l-1.836-9.392zM138.653.9c2.557 0 3.626 1.301 3.626 3.72v1.324c0 1.79-.628 2.906-2.022 3.348 1.487.442 2.045 1.65 2.045 3.394v2.534c0 .72.023 1.395.326 1.953h-1.837c-.209-.465-.302-.884-.302-1.976v-2.558c0-1.836-.86-2.417-2.37-2.417h-1.279v6.95h-1.813V.9zm-.465 7.671c1.441 0 2.301-.465 2.301-2.232V4.781c0-1.465-.534-2.232-1.882-2.232h-1.767V8.57zm11.406 8.602V2.549h-2.999V.9h7.81v1.65h-2.998v14.623zm15.036-9.067v1.628h-3.975v5.788h4.881v1.65h-6.694V.9h6.694v1.65h-4.88v5.556zm7.16 9.067h-1.626V.899h2.3l3.766 11.763V.899h1.604v16.273h-1.883l-4.16-13.158zM60.122 22.597c2.533 0 3.696 1.534 3.696 4.045v8.206c0 2.488-1.163 4.022-3.696 4.022H56.31V22.597zm-.023 14.623c1.301 0 1.929-.814 1.929-2.302V26.55c0-1.488-.628-2.301-1.952-2.301h-1.953V37.22zm13.619-7.416v1.627h-3.975v5.789h4.881v1.65H67.93V22.597h6.693v1.65h-4.88v5.557zm6.732 5.23c0 1.465.581 2.348 1.906 2.348 1.302 0 1.883-.883 1.883-2.348V22.597h1.696v12.344c0 2.465-1.139 4.115-3.649 4.115-2.487 0-3.626-1.65-3.626-4.115V22.597h1.79zm12.306 3.836V24.248h-2.998v-1.651h7.81v1.65h-3V38.87zm15.662-12.367v.441h-1.72v-.534c0-1.465-.558-2.325-1.86-2.325-1.3 0-1.859.86-1.859 2.301 0 3.65 5.462 3.999 5.462 8.579 0 2.464-1.185 4.068-3.672 4.068s-3.65-1.604-3.65-4.068v-.93h1.698v1.023c0 1.464.604 2.324 1.906 2.324 1.301 0 1.905-.86 1.905-2.324 0-3.627-5.438-3.976-5.438-8.555 0-2.511 1.162-4.069 3.602-4.069 2.464 0 3.626 1.604 3.626 4.069zm11.302.023v1.464H118v-1.557c0-1.465-.581-2.348-1.906-2.348-1.301 0-1.906.883-1.906 2.348v8.601c0 1.465.605 2.348 1.906 2.348 1.325 0 1.906-.883 1.906-2.348V32.92h1.72v2.022c0 2.465-1.162 4.092-3.672 4.092-2.487 0-3.65-1.627-3.65-4.092v-8.415c0-2.464 1.163-4.092 3.65-4.092 2.51 0 3.672 1.628 3.672 4.092zm5.87 5.021v7.323h-1.813V22.597h1.813v7.323h3.998v-7.323h1.813V38.87h-1.813v-7.323zm10.047 7.323V22.597h1.812V37.22h4.649v1.65zm12.459-3.278l-.628 3.278h-1.673l3.114-16.273h2.627l3.114 16.273h-1.813l-.627-3.278zm.232-1.557h3.626l-1.836-9.392zm11.883 4.835h-1.627V22.597h2.301l3.766 11.763V22.597h1.603V38.87h-1.882l-4.16-13.158zm14.091-16.273c2.534 0 3.696 1.534 3.696 4.045v8.206c0 2.488-1.162 4.022-3.696 4.022h-3.812V22.597zm-.023 14.623c1.302 0 1.93-.814 1.93-2.302V26.55c0-1.488-.628-2.301-1.953-2.301h-1.953V37.22z"/></g></svg>
